{"title":"In Fear 2013 DVDRip Xvid AC3 LKRG","uid":10717763,"size":884209383,"categoryP":"video","categoryS":"movies","magnet":"?xt=urn:btih:d11588af08e7874914723530847ae20c0c63371a&amp;dn=In+Fear+2013+DVDRip+Xvid+AC3+LKRG&amp;tr=udp%3A%2F%2Ftracker.openbittorrent.com%3A80&amp;tr=udp%3A%2F%2Fopen.demonii.com%3A1337&amp;tr=udp%3A%2F%2Ftracker.coppersurfer.tk%3A6969&amp;tr=udp%3A%2F%2Fexodus.desync.com%3A6969","seeders":5,"leechers":1,"uploader":".BONE.","files":2,"time":1407432869,"description":"PLOT\n\nDriving to a music festival in Ireland, a new couple become lost and are then\nset upon by a tormentor with an unknown motiv\n\nRuntime ..........: 1h 25mn\nFile Size ........: 843 MB\nResolution .......: 720 x 368 &lt;a href=&quot;\nhttp://www.imdb.com/title/tt2165859/&quot; rel=&quot;nofollow&quot; target=&quot;_NEW&quot;&gt;\nhttp://www.imdb.com/title/tt2165859/&lt;/a&gt;\nGenre ............: Horror,Mystery,Thriller\nLanguage .........: English\nSubtitles ........: None\nComplete name : In Fear 2013 DVDRip Xvid AC3 LKRGInFeaR_LKRG.avi\nFormat : AVI\nFormat/Info : Audio Video Interleave\nFile size : 843 MiB\nDuration : 1h 25mn\nOverall bit rate : 1 385 Kbps\nWriting application : VirtualDubMod 1.5.10.2 (build 2540/release)\nWriting library : VirtualDubMod build 2540/release\nVideo\nID : 0\nFormat : MPEG-4 Visual\nFormat profile : Advanced Simple@L5\nFormat settings, BVOP : 2\nFormat settings, QPel : No\nFormat settings, GMC : No warppoints\nFormat settings, Matrix : Default (H.263)\nMuxing mode : Packed bitstream\nCodec ID : XVID\nCodec ID/Hint : XviD\nDuration : 1h 25mn\nBit rate : 928 Kbps\nWidth : 720 pixels\nHeight : 368 pixels\nDisplay aspect ratio : 2.40:1\nFrame rate : 23.976 fps\nColor space : YUV\nChroma subsampling : 4:2:0\nBit depth : 8 bits\nScan type : Progressive\nCompression mode : Lossy\nBits/(Pixel*Frame) : 0.146\nStream size : 565 MiB (67%)\nWriting library : XviD 1.2.1 (UTC 2008-12-04)\nAudio\nID : 1\nFormat : AC-3\nFormat/Info : Audio Coding 3\nMode extension : CM (complete main)\nFormat settings, Endianness : Big\nCodec ID : 2000\nDuration : 1h 25mn\nBit rate mode : Constant\nBit rate : 448 Kbps\nChannel(s) : 6 channels\nChannel positions : Front: L C R, Side: L R, LFE\nSampling rate : 48.0 KHz\nBit depth : 16 bits\nCompression mode : Lossy\nStream size : 273 MiB (32%)\nAlignment : Split accross interleaves\nInterleave, duration : 42 ms (1.00 video frame)\nInterleave, preload duration : 500 ms","torrent":{"xt":"urn:btih:d11588af08e7874914723530847ae20c0c63371a","amp;dn":"In+Fear+2013+DVDRip+Xvid+AC3+LKRG","amp;tr":["udp%3A%2F%2Ftracker.openbittorrent.com%3A80","udp%3A%2F%2Fopen.demonii.com%3A1337","udp%3A%2F%2Ftracker.coppersurfer.tk%3A6969","udp%3A%2F%2Fexodus.desync.com%3A6969"],"infoHash":"d11588af08e7874914723530847ae20c0c63371a","infoHashBuffer":{"type":"Buffer","data":[209,21,136,175,8,231,135,73,20,114,53,48,132,122,226,12,12,99,55,26]},"announce":[],"urlList":[]}}